<svg width="450" height="450" viewBox="0 0 450 450" fill="none" xmlns="http://www.w3.org/2000/svg">
<path d="M139.844 150.633C139.844 150.841 139.805 151.049 139.727 151.258C139.674 151.44 139.609 151.609 139.531 151.766C139.271 152.443 138.997 153.107 138.711 153.758C138.424 154.409 138.164 155.073 137.93 155.75C136.992 158.693 136.263 161.987 135.742 165.633C135.247 169.253 134.935 173.042 134.805 177C135.404 177.052 135.99 177.104 136.562 177.156C137.135 177.182 137.721 177.195 138.32 177.195C139.518 177.195 140.807 177.143 142.188 177.039C143.568 176.935 144.922 176.805 146.25 176.648C147.578 176.466 148.815 176.258 149.961 176.023C151.133 175.789 152.109 175.542 152.891 175.281L153.359 175.75C151.016 177.208 148.255 178.328 145.078 179.109C141.901 179.891 138.451 180.424 134.727 180.711C134.674 185.008 134.792 189.24 135.078 193.406C135.365 197.599 135.781 201.531 136.328 205.203L135.664 205.516C134.909 203.797 134.258 201.948 133.711 199.969C133.164 197.99 132.682 195.945 132.266 193.836C131.875 191.727 131.549 189.578 131.289 187.391C131.055 185.203 130.859 183.042 130.703 180.906C130.182 180.932 129.648 180.945 129.102 180.945C128.581 180.945 128.047 180.945 127.5 180.945C127.031 180.945 126.484 180.932 125.859 180.906C125.26 180.854 124.688 180.75 124.141 180.594C123.594 180.411 123.138 180.138 122.773 179.773C122.409 179.383 122.227 178.849 122.227 178.172C122.227 177.729 122.331 177.365 122.539 177.078C122.773 176.766 123.047 176.518 123.359 176.336C123.698 176.128 124.062 175.984 124.453 175.906C124.87 175.802 125.273 175.75 125.664 175.75C125.872 175.75 126.068 175.763 126.25 175.789C126.458 175.815 126.667 175.854 126.875 175.906C127.474 175.984 128.073 176.076 128.672 176.18C129.271 176.258 129.87 176.336 130.469 176.414C130.417 175.424 130.391 174.448 130.391 173.484C130.391 172.495 130.391 171.544 130.391 170.633C130.391 169.747 130.404 168.719 130.43 167.547C130.456 166.349 130.521 165.086 130.625 163.758C130.755 162.43 130.924 161.102 131.133 159.773C131.367 158.419 131.68 157.143 132.07 155.945C132.461 154.747 132.956 153.68 133.555 152.742C134.154 151.805 134.883 151.076 135.742 150.555C136.185 150.32 136.654 150.099 137.148 149.891C137.669 149.656 138.164 149.539 138.633 149.539C139.44 149.539 139.844 149.904 139.844 150.633ZM168.242 139.109C166.341 140.568 164.128 141.831 161.602 142.898C159.076 143.94 156.432 144.812 153.672 145.516C150.911 146.219 148.151 146.74 145.391 147.078C142.63 147.417 140.065 147.586 137.695 147.586C136.966 147.586 136.042 147.547 134.922 147.469C133.802 147.391 132.591 147.273 131.289 147.117C130.013 146.961 128.698 146.753 127.344 146.492C125.99 146.206 124.701 145.88 123.477 145.516C122.279 145.125 121.211 144.669 120.273 144.148C119.336 143.628 118.633 143.042 118.164 142.391C117.878 141.948 117.578 141.453 117.266 140.906C116.953 140.333 116.797 139.76 116.797 139.188C116.797 138.458 117.201 138.094 118.008 138.094C118.216 138.094 118.398 138.107 118.555 138.133C118.711 138.159 118.893 138.198 119.102 138.25C120.091 138.562 121.029 138.888 121.914 139.227C122.826 139.565 123.763 139.878 124.727 140.164C127.878 140.893 131.042 141.44 134.219 141.805C137.422 142.143 140.651 142.312 143.906 142.312C147.865 142.312 151.927 142.013 156.094 141.414C160.26 140.815 164.206 139.812 167.93 138.406L168.242 139.109ZM176.055 204.227C176.055 205.138 175.599 205.594 174.688 205.594C174.115 205.594 173.555 205.451 173.008 205.164C172.487 204.878 172.005 204.591 171.562 204.305C171.432 204.227 171.315 204.135 171.211 204.031C171.133 203.953 171.042 203.862 170.938 203.758C169.271 203.966 167.695 204.135 166.211 204.266C164.727 204.396 163.464 204.461 162.422 204.461C161.719 204.461 160.951 204.422 160.117 204.344C159.284 204.292 158.503 204.122 157.773 203.836C157.018 203.576 156.393 203.172 155.898 202.625C155.404 202.078 155.156 201.31 155.156 200.32C155.156 199.591 155.391 198.914 155.859 198.289C156.302 197.664 156.927 197.352 157.734 197.352C157.812 197.352 157.904 197.365 158.008 197.391C158.112 197.417 158.203 197.43 158.281 197.43C159.922 197.794 161.641 198.094 163.438 198.328C165.234 198.589 167.044 198.797 168.867 198.953C168.633 197.859 168.464 196.714 168.359 195.516C168.255 194.344 168.177 193.198 168.125 192.078C168.099 190.958 168.086 189.917 168.086 188.953C168.112 187.99 168.125 187.195 168.125 186.57C168.125 184.669 168.151 182.586 168.203 180.32C168.255 178.029 168.333 175.646 168.438 173.172C168.568 170.672 168.724 168.12 168.906 165.516C169.115 162.885 169.349 160.281 169.609 157.703C169.896 155.099 170.221 152.573 170.586 150.125C170.977 147.651 171.419 145.32 171.914 143.133C169.701 143.445 167.552 143.823 165.469 144.266C163.385 144.682 161.471 145.151 159.727 145.672C159.57 145.724 159.427 145.75 159.297 145.75C159.167 145.75 159.036 145.75 158.906 145.75C158.516 145.75 158.164 145.659 157.852 145.477C157.513 145.294 157.24 145.06 157.031 144.773C156.823 144.487 156.667 144.161 156.562 143.797C156.432 143.432 156.367 143.068 156.367 142.703C156.367 141.922 156.562 141.271 156.953 140.75C157.318 140.229 157.799 139.799 158.398 139.461C158.997 139.122 159.674 138.875 160.43 138.719C161.211 138.562 161.992 138.445 162.773 138.367C163.555 138.289 164.297 138.25 165 138.25C165.729 138.25 166.367 138.25 166.914 138.25C167.721 138.25 168.659 138.276 169.727 138.328C170.794 138.354 171.927 138.419 173.125 138.523C173.255 138.055 173.398 137.612 173.555 137.195C173.711 136.753 173.867 136.323 174.023 135.906L174.844 136.258C174.74 136.779 174.622 137.573 174.492 138.641C175.846 138.771 177.227 138.927 178.633 139.109C180.039 139.266 181.38 139.474 182.656 139.734C183.932 139.995 185.104 140.294 186.172 140.633C187.24 140.945 188.125 141.297 188.828 141.688L188.438 142.312C187.786 142.234 187.122 142.195 186.445 142.195C185.794 142.169 185.156 142.156 184.531 142.156C182.969 142.156 181.302 142.221 179.531 142.352C177.76 142.482 175.938 142.651 174.062 142.859C173.932 144.604 173.802 146.57 173.672 148.758C173.542 150.919 173.424 153.237 173.32 155.711C173.242 158.185 173.177 160.75 173.125 163.406C173.073 166.062 173.047 168.745 173.047 171.453C173.047 174.135 173.073 176.792 173.125 179.422C173.177 182.052 173.268 184.565 173.398 186.961C173.555 189.357 173.737 191.596 173.945 193.68C174.18 195.789 174.453 197.651 174.766 199.266C175.469 199.292 176.159 199.305 176.836 199.305C177.539 199.331 178.229 199.344 178.906 199.344C180.286 199.344 181.68 199.305 183.086 199.227C184.492 199.174 185.872 199.005 187.227 198.719L187.617 199.344C187.07 199.734 186.367 200.099 185.508 200.438C184.674 200.776 183.737 201.102 182.695 201.414C181.68 201.727 180.573 202.013 179.375 202.273C178.203 202.56 177.005 202.807 175.781 203.016C175.859 203.224 175.924 203.419 175.977 203.602C176.029 203.81 176.055 204.018 176.055 204.227ZM222.383 194.656C222.096 196.531 221.445 198.159 220.43 199.539C219.44 200.945 218.229 202.091 216.797 202.977C215.391 203.888 213.828 204.565 212.109 205.008C210.417 205.451 208.711 205.672 206.992 205.672C205.768 205.672 204.505 205.516 203.203 205.203C201.901 204.891 200.586 204.552 199.258 204.188C197.956 203.823 196.667 203.484 195.391 203.172C194.141 202.859 192.943 202.703 191.797 202.703C191.25 202.703 190.664 202.768 190.039 202.898C189.44 203.029 188.841 203.211 188.242 203.445C187.669 203.68 187.135 203.966 186.641 204.305C186.146 204.669 185.755 205.073 185.469 205.516L184.844 205.203C184.948 204.109 185.221 203.107 185.664 202.195C186.133 201.284 186.719 200.49 187.422 199.812C188.151 199.135 188.971 198.602 189.883 198.211C190.82 197.846 191.836 197.664 192.93 197.664C193.19 197.664 193.438 197.664 193.672 197.664C193.932 197.664 194.193 197.677 194.453 197.703C193.359 195.099 192.448 192.247 191.719 189.148C191.016 186.023 190.456 182.846 190.039 179.617C189.622 176.362 189.323 173.133 189.141 169.93C188.984 166.727 188.906 163.732 188.906 160.945C188.906 160.008 188.919 158.914 188.945 157.664C188.997 156.414 189.089 155.099 189.219 153.719C189.349 152.312 189.531 150.906 189.766 149.5C190.026 148.094 190.378 146.766 190.82 145.516C191.263 144.266 191.81 143.146 192.461 142.156C193.112 141.167 193.906 140.398 194.844 139.852C195.339 139.565 195.846 139.305 196.367 139.07C196.914 138.836 197.474 138.719 198.047 138.719C198.411 138.719 198.724 138.81 198.984 138.992C199.271 139.148 199.414 139.435 199.414 139.852C199.414 140.086 199.375 140.307 199.297 140.516C199.245 140.698 199.18 140.893 199.102 141.102C198.685 142.039 198.255 142.951 197.812 143.836C197.396 144.721 197.044 145.633 196.758 146.57C196.081 148.836 195.521 151.297 195.078 153.953C194.661 156.609 194.349 159.383 194.141 162.273C193.932 165.164 193.815 168.146 193.789 171.219C193.763 174.266 193.815 177.312 193.945 180.359C194.102 183.38 194.31 186.375 194.57 189.344C194.831 192.286 195.143 195.112 195.508 197.82C196.602 197.977 197.708 198.172 198.828 198.406C199.974 198.667 201.12 198.914 202.266 199.148C203.438 199.409 204.622 199.63 205.82 199.812C207.018 199.995 208.242 200.086 209.492 200.086C210.664 200.086 211.836 199.982 213.008 199.773C214.206 199.591 215.339 199.279 216.406 198.836C217.5 198.393 218.503 197.807 219.414 197.078C220.326 196.349 221.094 195.451 221.719 194.383L222.383 194.656ZM238.008 204.227C238.008 205.138 237.552 205.594 236.641 205.594C236.068 205.594 235.508 205.451 234.961 205.164C234.44 204.878 233.958 204.591 233.516 204.305C233.385 204.227 233.268 204.135 233.164 204.031C233.086 203.953 232.995 203.862 232.891 203.758C231.224 203.966 229.648 204.135 228.164 204.266C226.68 204.396 225.417 204.461 224.375 204.461C223.672 204.461 222.904 204.422 222.07 204.344C221.237 204.292 220.456 204.122 219.727 203.836C218.971 203.576 218.346 203.172 217.852 202.625C217.357 202.078 217.109 201.31 217.109 200.32C217.109 199.591 217.344 198.914 217.812 198.289C218.255 197.664 218.88 197.352 219.688 197.352C219.766 197.352 219.857 197.365 219.961 197.391C220.065 197.417 220.156 197.43 220.234 197.43C221.875 197.794 223.594 198.094 225.391 198.328C227.188 198.589 228.997 198.797 230.82 198.953C230.586 197.859 230.417 196.714 230.312 195.516C230.208 194.344 230.13 193.198 230.078 192.078C230.052 190.958 230.039 189.917 230.039 188.953C230.065 187.99 230.078 187.195 230.078 186.57C230.078 184.669 230.104 182.586 230.156 180.32C230.208 178.029 230.286 175.646 230.391 173.172C230.521 170.672 230.677 168.12 230.859 165.516C231.068 162.885 231.302 160.281 231.562 157.703C231.849 155.099 232.174 152.573 232.539 150.125C232.93 147.651 233.372 145.32 233.867 143.133C231.654 143.445 229.505 143.823 227.422 144.266C225.339 144.682 223.424 145.151 221.68 145.672C221.523 145.724 221.38 145.75 221.25 145.75C221.12 145.75 220.99 145.75 220.859 145.75C220.469 145.75 220.117 145.659 219.805 145.477C219.466 145.294 219.193 145.06 218.984 144.773C218.776 144.487 218.62 144.161 218.516 143.797C218.385 143.432 218.32 143.068 218.32 142.703C218.32 141.922 218.516 141.271 218.906 140.75C219.271 140.229 219.753 139.799 220.352 139.461C220.951 139.122 221.628 138.875 222.383 138.719C223.164 138.562 223.945 138.445 224.727 138.367C225.508 138.289 226.25 138.25 226.953 138.25C227.682 138.25 228.32 138.25 228.867 138.25C229.674 138.25 230.612 138.276 231.68 138.328C232.747 138.354 233.88 138.419 235.078 138.523C235.208 138.055 235.352 137.612 235.508 137.195C235.664 136.753 235.82 136.323 235.977 135.906L236.797 136.258C236.693 136.779 236.576 137.573 236.445 138.641C237.799 138.771 239.18 138.927 240.586 139.109C241.992 139.266 243.333 139.474 244.609 139.734C245.885 139.995 247.057 140.294 248.125 140.633C249.193 140.945 250.078 141.297 250.781 141.688L250.391 142.312C249.74 142.234 249.076 142.195 248.398 142.195C247.747 142.169 247.109 142.156 246.484 142.156C244.922 142.156 243.255 142.221 241.484 142.352C239.714 142.482 237.891 142.651 236.016 142.859C235.885 144.604 235.755 146.57 235.625 148.758C235.495 150.919 235.378 153.237 235.273 155.711C235.195 158.185 235.13 160.75 235.078 163.406C235.026 166.062 235 168.745 235 171.453C235 174.135 235.026 176.792 235.078 179.422C235.13 182.052 235.221 184.565 235.352 186.961C235.508 189.357 235.69 191.596 235.898 193.68C236.133 195.789 236.406 197.651 236.719 199.266C237.422 199.292 238.112 199.305 238.789 199.305C239.492 199.331 240.182 199.344 240.859 199.344C242.24 199.344 243.633 199.305 245.039 199.227C246.445 199.174 247.826 199.005 249.18 198.719L249.57 199.344C249.023 199.734 248.32 200.099 247.461 200.438C246.628 200.776 245.69 201.102 244.648 201.414C243.633 201.727 242.526 202.013 241.328 202.273C240.156 202.56 238.958 202.807 237.734 203.016C237.812 203.224 237.878 203.419 237.93 203.602C237.982 203.81 238.008 204.018 238.008 204.227ZM265.664 204.656C265.664 205.385 265.26 205.75 264.453 205.75C263.932 205.75 263.438 205.646 262.969 205.438C262.5 205.255 262.07 205.047 261.68 204.812C260.872 204.37 260.156 203.719 259.531 202.859C258.932 202 258.411 201.01 257.969 199.891C257.552 198.771 257.188 197.547 256.875 196.219C256.589 194.917 256.354 193.589 256.172 192.234C255.99 190.88 255.846 189.539 255.742 188.211C255.638 186.883 255.573 185.646 255.547 184.5C254.792 184.214 254.023 183.888 253.242 183.523C252.487 183.159 251.797 182.755 251.172 182.312C250.573 181.844 250.078 181.349 249.688 180.828C249.297 180.281 249.102 179.708 249.102 179.109C249.102 178.641 249.206 178.224 249.414 177.859C249.648 177.469 250.026 177.273 250.547 177.273C250.99 177.273 251.406 177.378 251.797 177.586C252.188 177.768 252.578 178.016 252.969 178.328C253.359 178.641 253.763 179.005 254.18 179.422C254.596 179.812 255.039 180.216 255.508 180.633C255.508 177.977 255.599 175.164 255.781 172.195C255.964 169.201 256.289 166.219 256.758 163.25C257.227 160.255 257.852 157.339 258.633 154.5C259.44 151.661 260.456 149.044 261.68 146.648L262.383 146.883C261.497 151.388 260.846 155.906 260.43 160.438C260.039 164.943 259.844 169.461 259.844 173.992C259.844 175.659 259.883 177.312 259.961 178.953C260.065 180.568 260.208 182.182 260.391 183.797C261.172 184.109 262.044 184.357 263.008 184.539C263.971 184.721 265.039 184.812 266.211 184.812C268.19 184.812 270.026 184.513 271.719 183.914C273.438 183.315 275 182.495 276.406 181.453C277.839 180.385 279.102 179.135 280.195 177.703C281.289 176.271 282.214 174.734 282.969 173.094C283.724 171.427 284.297 169.708 284.688 167.938C285.078 166.141 285.273 164.344 285.273 162.547C285.273 160.776 285.078 158.979 284.688 157.156C284.297 155.307 283.711 153.523 282.93 151.805C282.174 150.06 281.237 148.432 280.117 146.922C279.023 145.411 277.76 144.096 276.328 142.977C274.896 141.831 273.307 140.932 271.562 140.281C269.844 139.604 267.982 139.266 265.977 139.266C264.336 139.266 262.643 139.565 260.898 140.164C259.154 140.763 257.565 141.609 256.133 142.703C254.727 143.771 253.555 145.06 252.617 146.57C251.706 148.081 251.25 149.734 251.25 151.531C251.25 152.234 251.328 152.872 251.484 153.445C251.667 153.992 251.849 154.5 252.031 154.969C252.24 155.438 252.422 155.88 252.578 156.297C252.76 156.688 252.852 157.091 252.852 157.508C252.852 158.263 252.591 158.901 252.07 159.422C251.576 159.917 250.964 160.164 250.234 160.164C249.557 160.164 249.023 159.982 248.633 159.617C248.242 159.253 247.93 158.797 247.695 158.25C247.487 157.703 247.344 157.13 247.266 156.531C247.214 155.906 247.188 155.359 247.188 154.891C247.188 152.599 247.721 150.529 248.789 148.68C249.883 146.805 251.302 145.138 253.047 143.68C254.141 142.742 255.234 141.922 256.328 141.219C257.448 140.49 258.594 139.891 259.766 139.422C260.938 138.927 262.161 138.562 263.438 138.328C264.74 138.068 266.12 137.938 267.578 137.938C270.964 137.938 274.089 138.523 276.953 139.695C279.818 140.841 282.279 142.456 284.336 144.539C286.419 146.596 288.034 149.057 289.18 151.922C290.352 154.76 290.938 157.885 290.938 161.297C290.938 164.812 290.312 168.107 289.062 171.18C287.839 174.227 286.12 176.896 283.906 179.188C281.719 181.453 279.115 183.237 276.094 184.539C273.073 185.841 269.779 186.492 266.211 186.492C265.299 186.492 264.375 186.44 263.438 186.336C262.5 186.232 261.576 186.102 260.664 185.945C261.523 191.831 263.086 197.638 265.352 203.367C265.43 203.576 265.495 203.784 265.547 203.992C265.625 204.227 265.664 204.448 265.664 204.656ZM335.117 148.25C335.117 150.125 334.805 151.805 334.18 153.289C333.581 154.747 332.76 156.049 331.719 157.195C330.677 158.341 329.453 159.331 328.047 160.164C326.667 160.997 325.195 161.701 323.633 162.273C322.07 162.846 320.456 163.302 318.789 163.641C317.148 163.953 315.547 164.174 313.984 164.305V163.602C315.703 163.003 317.474 162.208 319.297 161.219C321.146 160.229 322.812 159.07 324.297 157.742C325.807 156.388 327.044 154.865 328.008 153.172C328.997 151.453 329.492 149.565 329.492 147.508C329.492 145.268 328.88 143.484 327.656 142.156C326.432 140.828 324.674 140.164 322.383 140.164C320.586 140.164 318.802 140.451 317.031 141.023C315.26 141.57 313.568 142.352 311.953 143.367C310.339 144.357 308.828 145.529 307.422 146.883C306.042 148.237 304.844 149.721 303.828 151.336C302.812 152.924 302.005 154.604 301.406 156.375C300.833 158.12 300.547 159.891 300.547 161.688C300.547 163.641 300.951 165.438 301.758 167.078C302.565 168.719 303.62 170.177 304.922 171.453C306.224 172.729 307.708 173.81 309.375 174.695C311.042 175.555 312.734 176.206 314.453 176.648V177.352C313.62 177.69 312.734 178.146 311.797 178.719C310.859 179.292 309.909 179.956 308.945 180.711C308.008 181.466 307.096 182.312 306.211 183.25C305.352 184.188 304.583 185.177 303.906 186.219C303.229 187.26 302.682 188.354 302.266 189.5C301.875 190.62 301.68 191.766 301.68 192.938C301.68 195.958 302.422 198.25 303.906 199.812C305.417 201.375 307.682 202.156 310.703 202.156C312.396 202.156 314.01 201.922 315.547 201.453C317.109 201.01 318.555 200.359 319.883 199.5C321.237 198.667 322.474 197.651 323.594 196.453C324.714 195.255 325.69 193.927 326.523 192.469L327.031 192.703C326.328 194.578 325.312 196.362 323.984 198.055C322.656 199.747 321.12 201.232 319.375 202.508C317.63 203.784 315.716 204.786 313.633 205.516C311.576 206.271 309.453 206.648 307.266 206.648C305.573 206.648 304.01 206.401 302.578 205.906C301.146 205.411 299.909 204.682 298.867 203.719C297.826 202.755 297.005 201.557 296.406 200.125C295.807 198.719 295.508 197.078 295.508 195.203C295.508 191.479 296.615 188.211 298.828 185.398C301.042 182.56 304.336 180.203 308.711 178.328C306.523 178.328 304.531 177.977 302.734 177.273C300.938 176.57 299.388 175.581 298.086 174.305C296.81 173.003 295.82 171.453 295.117 169.656C294.414 167.859 294.062 165.867 294.062 163.68C294.062 161.544 294.453 159.435 295.234 157.352C296.016 155.268 297.083 153.276 298.438 151.375C299.818 149.474 301.419 147.716 303.242 146.102C305.091 144.487 307.07 143.094 309.18 141.922C311.315 140.724 313.529 139.786 315.82 139.109C318.138 138.432 320.43 138.094 322.695 138.094C324.362 138.094 325.951 138.276 327.461 138.641C328.971 138.979 330.286 139.552 331.406 140.359C332.552 141.141 333.451 142.182 334.102 143.484C334.779 144.786 335.117 146.375 335.117 148.25ZM70.8203 255.633C70.8203 257.508 70.4688 259.266 69.7656 260.906C69.0625 262.547 68.112 264.057 66.9141 265.438C65.7422 266.792 64.375 268.016 62.8125 269.109C61.25 270.203 59.6094 271.128 57.8906 271.883C56.1719 272.612 54.4141 273.185 52.6172 273.602C50.8464 273.992 49.1536 274.188 47.5391 274.188H47.3047V273.406C49.6484 273.12 51.9141 272.404 54.1016 271.258C56.3151 270.086 58.2682 268.615 59.9609 266.844C61.6797 265.073 63.0469 263.068 64.0625 260.828C65.1042 258.589 65.625 256.245 65.625 253.797C65.625 252.469 65.4427 251.271 65.0781 250.203C64.7396 249.109 64.2188 248.185 63.5156 247.43C62.8385 246.648 61.9792 246.049 60.9375 245.633C59.8958 245.216 58.6849 245.008 57.3047 245.008C54.5182 245.008 51.9922 245.607 49.7266 246.805C47.487 247.977 45.4948 249.552 43.75 251.531C42.0052 253.484 40.4948 255.737 39.2188 258.289C37.9688 260.841 36.9271 263.497 36.0938 266.258C35.2865 269.018 34.6875 271.792 34.2969 274.578C33.9062 277.339 33.7109 279.904 33.7109 282.273C33.7109 284.174 33.8281 286.102 34.0625 288.055C34.3229 289.982 34.7266 291.844 35.2734 293.641C35.8203 295.438 36.5234 297.117 37.3828 298.68C38.2422 300.268 39.2708 301.648 40.4688 302.82C41.6927 303.992 43.099 304.917 44.6875 305.594C46.276 306.271 48.0859 306.609 50.1172 306.609C51.5234 306.609 52.8776 306.349 54.1797 305.828C55.4818 305.307 56.7057 304.617 57.8516 303.758C58.9974 302.898 60.026 301.922 60.9375 300.828C61.875 299.734 62.6693 298.615 63.3203 297.469L63.7891 297.703C63.3464 299.318 62.5911 300.906 61.5234 302.469C60.4557 304.031 59.1797 305.411 57.6953 306.609C56.237 307.833 54.6354 308.81 52.8906 309.539C51.1719 310.294 49.4401 310.672 47.6953 310.672C45.3776 310.672 43.2812 310.307 41.4062 309.578C39.5312 308.875 37.8516 307.885 36.3672 306.609C34.9089 305.359 33.6458 303.875 32.5781 302.156C31.5104 300.464 30.625 298.628 29.9219 296.648C29.2188 294.643 28.6979 292.56 28.3594 290.398C28.0208 288.211 27.8516 286.023 27.8516 283.836C27.8516 280.971 28.151 277.977 28.75 274.852C29.349 271.727 30.2344 268.654 31.4062 265.633C32.5781 262.612 34.0104 259.747 35.7031 257.039C37.4219 254.305 39.388 251.909 41.6016 249.852C43.8151 247.768 46.263 246.128 48.9453 244.93C51.6536 243.706 54.5703 243.094 57.6953 243.094C59.6484 243.094 61.4323 243.38 63.0469 243.953C64.6615 244.5 66.0417 245.307 67.1875 246.375C68.3594 247.443 69.2578 248.758 69.8828 250.32C70.5078 251.857 70.8203 253.628 70.8203 255.633ZM91.25 252.742C91.25 253.003 91.2109 253.237 91.1328 253.445C91.0807 253.628 91.0156 253.823 90.9375 254.031C90.4948 255.073 90.026 256.102 89.5312 257.117C89.0365 258.107 88.6458 259.161 88.3594 260.281C87.3958 264.188 86.6667 268.133 86.1719 272.117C85.7031 276.102 85.3906 280.112 85.2344 284.148C86.9271 284.513 88.4375 285.112 89.7656 285.945C91.1198 286.779 92.4349 287.768 93.7109 288.914C96.1849 287.872 98.4245 286.57 100.43 285.008C102.461 283.445 104.193 281.648 105.625 279.617C107.057 277.586 108.164 275.333 108.945 272.859C109.727 270.385 110.117 267.742 110.117 264.93C110.117 263.367 109.883 261.779 109.414 260.164C108.971 258.523 108.333 256.935 107.5 255.398C106.693 253.862 105.716 252.417 104.57 251.062C103.451 249.708 102.201 248.536 100.82 247.547C99.4401 246.531 97.9557 245.737 96.3672 245.164C94.8047 244.565 93.1771 244.266 91.4844 244.266C89.8698 244.266 88.1901 244.565 86.4453 245.164C84.7266 245.763 83.151 246.609 81.7188 247.703C80.2865 248.771 79.1146 250.06 78.2031 251.57C77.2917 253.081 76.8359 254.734 76.8359 256.531C76.8359 257.234 76.9141 257.872 77.0703 258.445C77.2526 258.992 77.4349 259.5 77.6172 259.969C77.8255 260.438 78.0078 260.88 78.1641 261.297C78.3464 261.688 78.4375 262.091 78.4375 262.508C78.4375 263.263 78.1771 263.901 77.6562 264.422C77.1615 264.917 76.5495 265.164 75.8203 265.164C75.1432 265.164 74.6094 264.982 74.2188 264.617C73.8281 264.253 73.5156 263.797 73.2812 263.25C73.0729 262.703 72.9297 262.13 72.8516 261.531C72.7995 260.906 72.7734 260.359 72.7734 259.891C72.7734 257.599 73.3203 255.529 74.4141 253.68C75.5078 251.831 76.9141 250.164 78.6328 248.68C79.7266 247.742 80.8203 246.922 81.9141 246.219C83.0339 245.516 84.1797 244.917 85.3516 244.422C86.5495 243.927 87.7865 243.562 89.0625 243.328C90.3385 243.068 91.7057 242.938 93.1641 242.938C95.2474 242.938 97.2526 243.198 99.1797 243.719C101.133 244.24 102.956 244.982 104.648 245.945C106.367 246.909 107.93 248.068 109.336 249.422C110.768 250.776 111.992 252.286 113.008 253.953C114.023 255.62 114.805 257.43 115.352 259.383C115.924 261.31 116.211 263.341 116.211 265.477C116.211 268.628 115.638 271.531 114.492 274.188C113.372 276.844 111.849 279.227 109.922 281.336C107.995 283.419 105.755 285.229 103.203 286.766C100.651 288.276 97.9688 289.461 95.1562 290.32C95.4427 290.607 95.7161 290.88 95.9766 291.141C96.263 291.401 96.5495 291.674 96.8359 291.961C98.3984 293.497 99.9479 295.125 101.484 296.844C103.047 298.562 104.648 300.268 106.289 301.961C107.93 303.654 109.622 305.268 111.367 306.805C113.112 308.367 114.961 309.734 116.914 310.906C118.867 312.104 120.938 313.055 123.125 313.758C125.339 314.461 127.708 314.812 130.234 314.812C130.677 314.812 131.094 314.786 131.484 314.734C131.901 314.708 132.331 314.63 132.773 314.5L132.969 315.281C131.823 315.88 130.612 316.31 129.336 316.57C128.06 316.831 126.758 316.961 125.43 316.961C122.669 316.961 120.156 316.674 117.891 316.102C115.625 315.555 113.529 314.773 111.602 313.758C109.674 312.742 107.891 311.518 106.25 310.086C104.609 308.68 103.034 307.13 101.523 305.438C100.013 303.745 98.5286 301.935 97.0703 300.008C95.638 298.107 94.1536 296.141 92.6172 294.109C92.2786 293.667 91.9401 293.224 91.6016 292.781C91.2891 292.312 90.9766 291.857 90.6641 291.414C89.7266 291.57 88.7891 291.701 87.8516 291.805C86.9401 291.883 86.0286 291.935 85.1172 291.961C85.1172 295.138 85.1953 298.276 85.3516 301.375C85.5078 304.474 85.6901 307.521 85.8984 310.516L85.1562 310.75C84.0885 307.99 83.2682 304.969 82.6953 301.688C82.1484 298.406 81.7318 295.099 81.4453 291.766C80.7682 291.661 80.1042 291.518 79.4531 291.336C78.8021 291.154 78.2031 290.906 77.6562 290.594C77.1354 290.255 76.7057 289.852 76.3672 289.383C76.0547 288.888 75.8984 288.302 75.8984 287.625C75.8984 287 76.0547 286.466 76.3672 286.023C76.6797 285.555 77.0833 285.177 77.5781 284.891C78.099 284.578 78.6589 284.344 79.2578 284.188C79.8568 284.005 80.4557 283.888 81.0547 283.836C81.0286 283.107 81.0156 282.391 81.0156 281.688C81.0156 280.958 81.0156 280.255 81.0156 279.578C81.0156 278.51 81.0156 277.182 81.0156 275.594C81.0417 274.005 81.1068 272.312 81.2109 270.516C81.3411 268.719 81.5365 266.896 81.7969 265.047C82.0573 263.172 82.4089 261.414 82.8516 259.773C83.3203 258.133 83.9062 256.674 84.6094 255.398C85.3385 254.122 86.224 253.185 87.2656 252.586C87.6562 252.352 88.0859 252.143 88.5547 251.961C89.0234 251.753 89.5182 251.648 90.0391 251.648C90.8464 251.648 91.25 252.013 91.25 252.742ZM77.2656 287.781C77.2656 288.146 77.3828 288.471 77.6172 288.758C77.8516 289.044 78.1641 289.305 78.5547 289.539C78.9453 289.747 79.375 289.93 79.8438 290.086C80.3385 290.242 80.8464 290.372 81.3672 290.477C81.3151 289.591 81.263 288.719 81.2109 287.859C81.1849 286.974 81.1458 286.102 81.0938 285.242C80.651 285.242 80.1953 285.268 79.7266 285.32C79.2839 285.372 78.8802 285.49 78.5156 285.672C78.151 285.854 77.8516 286.115 77.6172 286.453C77.3828 286.766 77.2656 287.208 77.2656 287.781ZM85.1172 290.828C85.9245 290.828 86.7188 290.776 87.5 290.672C88.2812 290.568 89.0495 290.424 89.8047 290.242C89.1536 289.357 88.4505 288.549 87.6953 287.82C86.9661 287.065 86.1198 286.466 85.1562 286.023C85.1302 286.831 85.1172 287.638 85.1172 288.445C85.1172 289.227 85.1172 290.021 85.1172 290.828ZM137.266 309.227C137.266 310.138 136.81 310.594 135.898 310.594C135.326 310.594 134.766 310.451 134.219 310.164C133.698 309.878 133.216 309.591 132.773 309.305C132.643 309.227 132.526 309.135 132.422 309.031C132.344 308.953 132.253 308.862 132.148 308.758C130.482 308.966 128.906 309.135 127.422 309.266C125.938 309.396 124.674 309.461 123.633 309.461C122.93 309.461 122.161 309.422 121.328 309.344C120.495 309.292 119.714 309.122 118.984 308.836C118.229 308.576 117.604 308.172 117.109 307.625C116.615 307.078 116.367 306.31 116.367 305.32C116.367 304.591 116.602 303.914 117.07 303.289C117.513 302.664 118.138 302.352 118.945 302.352C119.023 302.352 119.115 302.365 119.219 302.391C119.323 302.417 119.414 302.43 119.492 302.43C121.133 302.794 122.852 303.094 124.648 303.328C126.445 303.589 128.255 303.797 130.078 303.953C129.844 302.859 129.674 301.714 129.57 300.516C129.466 299.344 129.388 298.198 129.336 297.078C129.31 295.958 129.297 294.917 129.297 293.953C129.323 292.99 129.336 292.195 129.336 291.57C129.336 289.669 129.362 287.586 129.414 285.32C129.466 283.029 129.544 280.646 129.648 278.172C129.779 275.672 129.935 273.12 130.117 270.516C130.326 267.885 130.56 265.281 130.82 262.703C131.107 260.099 131.432 257.573 131.797 255.125C132.188 252.651 132.63 250.32 133.125 248.133C130.911 248.445 128.763 248.823 126.68 249.266C124.596 249.682 122.682 250.151 120.938 250.672C120.781 250.724 120.638 250.75 120.508 250.75C120.378 250.75 120.247 250.75 120.117 250.75C119.727 250.75 119.375 250.659 119.062 250.477C118.724 250.294 118.451 250.06 118.242 249.773C118.034 249.487 117.878 249.161 117.773 248.797C117.643 248.432 117.578 248.068 117.578 247.703C117.578 246.922 117.773 246.271 118.164 245.75C118.529 245.229 119.01 244.799 119.609 244.461C120.208 244.122 120.885 243.875 121.641 243.719C122.422 243.562 123.203 243.445 123.984 243.367C124.766 243.289 125.508 243.25 126.211 243.25C126.94 243.25 127.578 243.25 128.125 243.25C128.932 243.25 129.87 243.276 130.938 243.328C132.005 243.354 133.138 243.419 134.336 243.523C134.466 243.055 134.609 242.612 134.766 242.195C134.922 241.753 135.078 241.323 135.234 240.906L136.055 241.258C135.951 241.779 135.833 242.573 135.703 243.641C137.057 243.771 138.438 243.927 139.844 244.109C141.25 244.266 142.591 244.474 143.867 244.734C145.143 244.995 146.315 245.294 147.383 245.633C148.451 245.945 149.336 246.297 150.039 246.688L149.648 247.312C148.997 247.234 148.333 247.195 147.656 247.195C147.005 247.169 146.367 247.156 145.742 247.156C144.18 247.156 142.513 247.221 140.742 247.352C138.971 247.482 137.148 247.651 135.273 247.859C135.143 249.604 135.013 251.57 134.883 253.758C134.753 255.919 134.635 258.237 134.531 260.711C134.453 263.185 134.388 265.75 134.336 268.406C134.284 271.062 134.258 273.745 134.258 276.453C134.258 279.135 134.284 281.792 134.336 284.422C134.388 287.052 134.479 289.565 134.609 291.961C134.766 294.357 134.948 296.596 135.156 298.68C135.391 300.789 135.664 302.651 135.977 304.266C136.68 304.292 137.37 304.305 138.047 304.305C138.75 304.331 139.44 304.344 140.117 304.344C141.497 304.344 142.891 304.305 144.297 304.227C145.703 304.174 147.083 304.005 148.438 303.719L148.828 304.344C148.281 304.734 147.578 305.099 146.719 305.438C145.885 305.776 144.948 306.102 143.906 306.414C142.891 306.727 141.784 307.013 140.586 307.273C139.414 307.56 138.216 307.807 136.992 308.016C137.07 308.224 137.135 308.419 137.188 308.602C137.24 308.81 137.266 309.018 137.266 309.227ZM188.398 254.109C188.398 256.245 187.865 258.237 186.797 260.086C185.755 261.935 184.388 263.536 182.695 264.891C181.029 266.245 179.167 267.312 177.109 268.094C175.052 268.849 173.021 269.201 171.016 269.148H170.391V268.445C172.109 268.081 173.724 267.456 175.234 266.57C176.771 265.659 178.099 264.552 179.219 263.25C180.365 261.948 181.263 260.49 181.914 258.875C182.591 257.26 182.93 255.568 182.93 253.797C182.93 252.625 182.786 251.518 182.5 250.477C182.214 249.435 181.771 248.536 181.172 247.781C180.573 247.026 179.805 246.427 178.867 245.984C177.956 245.542 176.862 245.32 175.586 245.32C173.763 245.32 171.914 245.594 170.039 246.141C168.164 246.688 166.354 247.456 164.609 248.445C162.865 249.435 161.224 250.607 159.688 251.961C158.177 253.315 156.849 254.799 155.703 256.414C154.583 258.029 153.698 259.747 153.047 261.57C152.396 263.393 152.07 265.255 152.07 267.156C152.07 269.188 152.357 270.945 152.93 272.43C153.529 273.888 154.323 275.177 155.312 276.297C156.328 277.391 157.5 278.328 158.828 279.109C160.156 279.891 161.576 280.607 163.086 281.258C164.596 281.883 166.133 282.469 167.695 283.016C169.284 283.562 170.833 284.148 172.344 284.773C173.854 285.398 175.273 286.102 176.602 286.883C177.93 287.638 179.089 288.549 180.078 289.617C181.094 290.659 181.888 291.909 182.461 293.367C183.06 294.799 183.359 296.492 183.359 298.445C183.359 300.581 182.917 302.482 182.031 304.148C181.172 305.815 180.026 307.208 178.594 308.328C177.161 309.474 175.521 310.333 173.672 310.906C171.823 311.505 169.922 311.805 167.969 311.805C165.859 311.805 163.906 311.44 162.109 310.711C160.312 310.008 158.698 309.044 157.266 307.82C155.833 306.622 154.583 305.229 153.516 303.641C152.448 302.078 151.589 300.451 150.938 298.758L151.523 298.445C152.305 299.826 153.203 301.18 154.219 302.508C155.234 303.862 156.38 305.06 157.656 306.102C158.932 307.169 160.339 308.029 161.875 308.68C163.438 309.331 165.13 309.656 166.953 309.656C168.438 309.656 169.818 309.448 171.094 309.031C172.37 308.615 173.477 308.016 174.414 307.234C175.352 306.453 176.081 305.49 176.602 304.344C177.148 303.198 177.422 301.896 177.422 300.438C177.422 298.302 176.966 296.544 176.055 295.164C175.143 293.784 173.945 292.612 172.461 291.648C170.977 290.685 169.284 289.865 167.383 289.188C165.482 288.51 163.529 287.833 161.523 287.156C159.544 286.453 157.604 285.672 155.703 284.812C153.802 283.927 152.109 282.82 150.625 281.492C149.141 280.164 147.943 278.523 147.031 276.57C146.12 274.591 145.664 272.169 145.664 269.305C145.664 266.701 146.068 264.253 146.875 261.961C147.682 259.643 148.789 257.521 150.195 255.594C151.628 253.667 153.307 251.948 155.234 250.438C157.161 248.901 159.232 247.599 161.445 246.531C163.685 245.464 166.016 244.656 168.438 244.109C170.859 243.536 173.294 243.25 175.742 243.25C177.487 243.25 179.128 243.458 180.664 243.875C182.227 244.292 183.568 244.943 184.688 245.828C185.833 246.688 186.732 247.807 187.383 249.188C188.06 250.568 188.398 252.208 188.398 254.109ZM209.57 241.141C209.466 241.505 209.362 241.974 209.258 242.547C209.18 243.094 209.089 243.706 208.984 244.383C210.885 244.539 212.852 244.747 214.883 245.008C216.94 245.268 218.945 245.607 220.898 246.023C222.852 246.414 224.714 246.883 226.484 247.43C228.281 247.951 229.896 248.549 231.328 249.227L231.016 249.969C228.151 249.604 225.286 249.357 222.422 249.227C219.583 249.07 216.745 248.992 213.906 248.992C212.995 248.992 212.07 249.018 211.133 249.07C210.221 249.122 209.297 249.174 208.359 249.227C208.151 251.154 207.943 253.302 207.734 255.672C207.526 258.016 207.331 260.49 207.148 263.094C206.992 265.698 206.849 268.393 206.719 271.18C206.615 273.94 206.536 276.714 206.484 279.5C206.432 282.26 206.419 284.982 206.445 287.664C206.497 290.32 206.602 292.859 206.758 295.281C206.914 297.677 207.135 299.904 207.422 301.961C207.708 304.018 208.073 305.802 208.516 307.312C208.568 307.547 208.633 307.781 208.711 308.016C208.815 308.276 208.867 308.523 208.867 308.758C208.867 309.174 208.763 309.5 208.555 309.734C208.346 309.995 208.021 310.125 207.578 310.125C207.005 310.125 206.432 309.969 205.859 309.656C205.312 309.344 204.818 309.044 204.375 308.758C203.594 308.237 202.995 307.404 202.578 306.258C202.161 305.112 201.862 303.875 201.68 302.547C201.497 301.219 201.393 299.917 201.367 298.641C201.341 297.365 201.328 296.31 201.328 295.477C201.328 293.497 201.367 291.31 201.445 288.914C201.549 286.518 201.68 284.005 201.836 281.375C202.018 278.719 202.24 275.997 202.5 273.211C202.76 270.398 203.073 267.625 203.438 264.891C203.802 262.13 204.206 259.435 204.648 256.805C205.117 254.174 205.638 251.701 206.211 249.383C204.284 249.513 202.357 249.695 200.43 249.93C198.529 250.138 196.667 250.398 194.844 250.711C193.047 251.023 191.315 251.375 189.648 251.766C188.008 252.13 186.484 252.547 185.078 253.016C184.766 253.172 184.427 253.25 184.062 253.25C183.307 253.25 182.93 252.872 182.93 252.117C182.93 251.596 183.073 251.062 183.359 250.516C183.646 249.969 183.932 249.487 184.219 249.07C184.661 248.445 185.326 247.898 186.211 247.43C187.07 246.935 188.06 246.505 189.18 246.141C190.326 245.75 191.523 245.438 192.773 245.203C194.049 244.943 195.286 244.734 196.484 244.578C197.682 244.396 198.802 244.279 199.844 244.227C200.911 244.148 201.784 244.109 202.461 244.109C203.242 244.109 204.062 244.135 204.922 244.188C205.781 244.214 206.667 244.253 207.578 244.305C207.995 243.003 208.424 241.844 208.867 240.828L209.57 241.141ZM268.438 277.625C268.438 279.734 268.242 282.039 267.852 284.539C267.487 287.013 266.914 289.487 266.133 291.961C265.352 294.435 264.362 296.818 263.164 299.109C261.966 301.427 260.534 303.458 258.867 305.203C257.227 306.974 255.339 308.393 253.203 309.461C251.094 310.529 248.724 311.062 246.094 311.062C243.49 311.062 241.172 310.568 239.141 309.578C237.135 308.615 235.378 307.312 233.867 305.672C232.357 304.057 231.081 302.182 230.039 300.047C228.997 297.911 228.151 295.685 227.5 293.367C226.875 291.049 226.419 288.719 226.133 286.375C225.846 284.031 225.703 281.818 225.703 279.734C225.703 277.521 225.807 275.242 226.016 272.898C226.224 270.529 226.576 268.185 227.07 265.867C227.591 263.523 228.268 261.245 229.102 259.031C229.935 256.792 230.964 254.708 232.188 252.781C233.438 250.828 234.896 249.07 236.562 247.508C238.255 245.919 240.208 244.604 242.422 243.562L242.734 244.109C241.172 245.385 239.792 246.857 238.594 248.523C237.422 250.19 236.393 251.987 235.508 253.914C234.648 255.815 233.919 257.82 233.32 259.93C232.721 262.013 232.24 264.122 231.875 266.258C231.536 268.367 231.289 270.477 231.133 272.586C230.977 274.669 230.898 276.674 230.898 278.602C230.898 280.398 231.016 282.378 231.25 284.539C231.51 286.701 231.927 288.888 232.5 291.102C233.073 293.315 233.828 295.464 234.766 297.547C235.703 299.63 236.849 301.479 238.203 303.094C239.557 304.708 241.146 305.997 242.969 306.961C244.792 307.951 246.875 308.445 249.219 308.445C251.094 308.445 252.76 307.977 254.219 307.039C255.703 306.128 256.992 304.917 258.086 303.406C259.18 301.896 260.104 300.177 260.859 298.25C261.615 296.323 262.227 294.37 262.695 292.391C263.164 290.411 263.503 288.497 263.711 286.648C263.919 284.773 264.023 283.133 264.023 281.727C264.023 280.633 263.958 279.344 263.828 277.859C263.724 276.349 263.529 274.747 263.242 273.055C262.982 271.362 262.643 269.617 262.227 267.82C261.81 266.023 261.289 264.279 260.664 262.586C260.039 260.867 259.31 259.253 258.477 257.742C257.669 256.232 256.732 254.904 255.664 253.758C254.596 252.612 253.411 251.714 252.109 251.062C250.807 250.385 249.362 250.047 247.773 250.047C246.367 250.047 245.169 250.385 244.18 251.062C243.19 251.714 242.383 252.56 241.758 253.602C241.159 254.643 240.716 255.802 240.43 257.078C240.169 258.328 240.039 259.552 240.039 260.75C240.039 260.906 240.039 261.089 240.039 261.297C240.039 261.479 240.065 261.648 240.117 261.805L239.531 261.883C239.453 261.31 239.375 260.737 239.297 260.164C239.245 259.565 239.219 258.966 239.219 258.367C239.219 256.753 239.427 255.19 239.844 253.68C240.286 252.143 240.938 250.789 241.797 249.617C242.656 248.445 243.737 247.508 245.039 246.805C246.367 246.076 247.917 245.711 249.688 245.711C252.161 245.711 254.336 246.245 256.211 247.312C258.112 248.38 259.753 249.786 261.133 251.531C262.539 253.276 263.698 255.281 264.609 257.547C265.547 259.786 266.302 262.091 266.875 264.461C267.448 266.805 267.852 269.122 268.086 271.414C268.32 273.706 268.438 275.776 268.438 277.625ZM277.383 243.484C276.94 243.979 276.589 244.617 276.328 245.398C276.094 246.18 275.911 247 275.781 247.859C275.651 248.719 275.56 249.578 275.508 250.438C275.482 251.297 275.469 252.039 275.469 252.664C275.469 256.18 275.781 259.63 276.406 263.016C277.057 266.401 277.956 269.708 279.102 272.938C280.247 276.167 281.602 279.318 283.164 282.391C284.753 285.464 286.497 288.445 288.398 291.336C288.945 292.169 289.531 293.081 290.156 294.07C290.781 295.06 291.38 296.102 291.953 297.195C292.266 296.206 292.578 295.255 292.891 294.344C293.203 293.406 293.503 292.56 293.789 291.805C294.544 289.695 295.352 287.404 296.211 284.93C297.096 282.456 298.034 279.917 299.023 277.312C300.039 274.682 301.094 272.039 302.188 269.383C303.307 266.701 304.466 264.109 305.664 261.609C306.888 259.109 308.138 256.753 309.414 254.539C310.716 252.326 312.057 250.346 313.438 248.602C313.828 248.107 314.297 247.586 314.844 247.039C315.417 246.466 316.029 245.945 316.68 245.477C317.331 244.982 318.008 244.578 318.711 244.266C319.414 243.953 320.117 243.797 320.82 243.797C321.107 243.797 321.406 243.862 321.719 243.992C322.031 244.122 322.188 244.357 322.188 244.695C322.188 244.904 322.135 245.099 322.031 245.281C321.927 245.464 321.81 245.633 321.68 245.789C315.951 254.357 310.768 263.211 306.133 272.352C301.497 281.492 297.279 290.841 293.477 300.398C293.971 301.57 294.362 302.729 294.648 303.875C294.961 305.021 295.117 306.141 295.117 307.234C295.117 307.677 295.065 308.172 294.961 308.719C294.883 309.266 294.727 309.773 294.492 310.242C294.258 310.737 293.945 311.141 293.555 311.453C293.164 311.792 292.682 311.961 292.109 311.961C291.589 311.961 291.172 311.831 290.859 311.57C290.547 311.31 290.312 310.984 290.156 310.594C290 310.229 289.896 309.826 289.844 309.383C289.792 308.94 289.766 308.523 289.766 308.133C289.766 307.169 289.857 306.102 290.039 304.93C290.247 303.784 290.495 302.599 290.781 301.375C290.312 300.672 289.805 299.943 289.258 299.188C288.737 298.458 288.203 297.729 287.656 297C287.135 296.297 286.628 295.62 286.133 294.969C285.664 294.318 285.247 293.719 284.883 293.172C283.138 290.672 281.432 288.107 279.766 285.477C278.099 282.82 276.615 280.099 275.312 277.312C274.01 274.5 272.956 271.622 272.148 268.68C271.367 265.711 270.977 262.638 270.977 259.461C270.977 256.466 271.432 253.589 272.344 250.828C273.255 248.042 274.688 245.49 276.641 243.172L277.383 243.484ZM292.734 304.773C292.656 304.591 292.565 304.409 292.461 304.227C292.383 304.07 292.292 303.888 292.188 303.68C292.161 303.732 292.148 303.771 292.148 303.797C292.148 303.849 292.135 303.901 292.109 303.953C292.005 304.344 291.888 304.76 291.758 305.203C291.628 305.646 291.51 306.102 291.406 306.57C291.302 307.039 291.211 307.495 291.133 307.938C291.081 308.406 291.055 308.836 291.055 309.227C291.055 309.565 291.107 309.917 291.211 310.281C291.315 310.646 291.589 310.828 292.031 310.828C292.63 310.828 293.086 310.62 293.398 310.203C293.711 309.812 293.867 309.331 293.867 308.758C293.867 308.081 293.737 307.404 293.477 306.727C293.216 306.049 292.969 305.398 292.734 304.773ZM354.219 255.008C354.219 255.607 354.115 256.323 353.906 257.156C353.698 257.964 353.385 258.758 352.969 259.539C352.578 260.294 352.083 260.945 351.484 261.492C350.885 262.013 350.195 262.273 349.414 262.273C348.997 262.273 348.724 262.13 348.594 261.844C348.49 261.557 348.438 261.245 348.438 260.906C348.438 259.812 348.529 258.732 348.711 257.664C348.893 256.596 348.984 255.49 348.984 254.344C348.984 253.224 348.893 252.13 348.711 251.062C348.529 249.969 348.19 249.005 347.695 248.172C347.227 247.339 346.549 246.674 345.664 246.18C344.805 245.659 343.698 245.398 342.344 245.398C340.391 245.398 338.581 245.854 336.914 246.766C335.273 247.677 333.763 248.914 332.383 250.477C331.029 252.039 329.792 253.862 328.672 255.945C327.578 258.003 326.602 260.19 325.742 262.508C324.883 264.826 324.141 267.195 323.516 269.617C322.917 272.039 322.409 274.383 321.992 276.648C321.602 278.914 321.315 281.036 321.133 283.016C320.951 284.969 320.859 286.648 320.859 288.055C320.859 289.305 320.911 290.633 321.016 292.039C321.146 293.445 321.354 294.839 321.641 296.219C321.953 297.573 322.357 298.875 322.852 300.125C323.346 301.375 323.971 302.469 324.727 303.406C325.482 304.37 326.38 305.125 327.422 305.672C328.49 306.245 329.727 306.531 331.133 306.531C333.19 306.531 335.013 306.128 336.602 305.32C338.19 304.513 339.596 303.432 340.82 302.078C342.07 300.724 343.138 299.161 344.023 297.391C344.935 295.646 345.729 293.836 346.406 291.961C346.276 291.049 346.172 290.138 346.094 289.227C346.016 288.289 345.977 287.365 345.977 286.453C345.977 285.828 346.003 285.06 346.055 284.148C346.107 283.211 346.198 282.221 346.328 281.18C346.458 280.112 346.641 279.044 346.875 277.977C347.109 276.883 347.396 275.854 347.734 274.891C348.073 273.901 348.477 273.042 348.945 272.312C349.414 271.557 349.961 270.984 350.586 270.594C351.003 270.359 351.419 270.151 351.836 269.969C352.279 269.76 352.747 269.656 353.242 269.656C353.607 269.656 353.893 269.734 354.102 269.891C354.336 270.047 354.453 270.307 354.453 270.672C354.453 270.906 354.414 271.141 354.336 271.375C354.284 271.583 354.206 271.805 354.102 272.039C353.138 274.539 352.435 277.104 351.992 279.734C351.549 282.365 351.328 285.021 351.328 287.703C351.328 288.641 351.38 289.773 351.484 291.102C351.615 292.43 351.784 293.836 351.992 295.32C352.201 296.805 352.461 298.328 352.773 299.891C353.086 301.453 353.438 302.938 353.828 304.344C354.245 305.75 354.688 307.026 355.156 308.172C355.651 309.318 356.185 310.229 356.758 310.906L356.055 311.141C353.763 308.823 351.836 306.206 350.273 303.289C348.737 300.398 347.604 297.365 346.875 294.188C345.651 297.078 344.167 299.721 342.422 302.117C341.641 303.133 340.768 304.057 339.805 304.891C338.841 305.75 337.812 306.492 336.719 307.117C335.625 307.742 334.466 308.224 333.242 308.562C332.044 308.901 330.781 309.07 329.453 309.07C327.526 309.07 325.82 308.732 324.336 308.055C322.878 307.378 321.615 306.479 320.547 305.359C319.479 304.24 318.581 302.951 317.852 301.492C317.148 300.034 316.589 298.523 316.172 296.961C315.755 295.372 315.456 293.784 315.273 292.195C315.091 290.607 315 289.135 315 287.781C315 284.76 315.273 281.57 315.82 278.211C316.393 274.852 317.214 271.531 318.281 268.25C319.349 264.943 320.664 261.792 322.227 258.797C323.815 255.776 325.625 253.12 327.656 250.828C329.688 248.536 331.94 246.714 334.414 245.359C336.888 244.005 339.557 243.328 342.422 243.328C344.167 243.328 345.755 243.615 347.188 244.188C348.646 244.734 349.896 245.529 350.938 246.57C351.979 247.586 352.786 248.81 353.359 250.242C353.932 251.674 354.219 253.263 354.219 255.008ZM443.633 315.125C442.747 315.776 441.784 316.219 440.742 316.453C439.727 316.688 438.698 316.805 437.656 316.805C434.089 316.805 430.911 316.271 428.125 315.203C425.365 314.161 422.93 312.716 420.82 310.867C418.737 309.018 416.953 306.844 415.469 304.344C414.01 301.844 412.786 299.148 411.797 296.258C410.833 293.367 410.091 290.346 409.57 287.195C409.049 284.044 408.698 280.906 408.516 277.781C408.333 274.63 408.281 271.557 408.359 268.562C408.464 265.542 408.646 262.742 408.906 260.164C408.438 260.867 407.865 261.987 407.188 263.523C406.51 265.06 405.755 266.857 404.922 268.914C404.115 270.971 403.268 273.224 402.383 275.672C401.497 278.094 400.612 280.542 399.727 283.016C398.867 285.49 398.021 287.924 397.188 290.32C396.38 292.69 395.651 294.852 395 296.805C394.375 298.758 393.828 300.411 393.359 301.766C392.917 303.146 392.63 304.07 392.5 304.539C392.396 304.852 392.253 305.242 392.07 305.711C391.914 306.18 391.706 306.635 391.445 307.078C391.211 307.521 390.924 307.898 390.586 308.211C390.273 308.523 389.909 308.68 389.492 308.68C389.023 308.68 388.633 308.484 388.32 308.094C388.008 307.729 387.747 307.286 387.539 306.766C387.357 306.245 387.201 305.724 387.07 305.203C386.966 304.682 386.888 304.266 386.836 303.953C386.68 302.859 386.536 301.479 386.406 299.812C386.276 298.146 386.159 296.297 386.055 294.266C385.977 292.234 385.911 290.073 385.859 287.781C385.807 285.464 385.755 283.146 385.703 280.828C385.677 278.484 385.651 276.193 385.625 273.953C385.625 271.688 385.612 269.578 385.586 267.625C385.586 265.646 385.586 263.875 385.586 262.312C385.586 260.75 385.586 259.5 385.586 258.562C385.013 259.865 384.323 261.518 383.516 263.523C382.734 265.529 381.875 267.781 380.938 270.281C380.026 272.781 379.062 275.477 378.047 278.367C377.057 281.232 376.068 284.188 375.078 287.234C374.115 290.281 373.177 293.354 372.266 296.453C371.38 299.552 370.586 302.56 369.883 305.477C369.805 305.737 369.701 306.049 369.57 306.414C369.466 306.805 369.323 307.169 369.141 307.508C368.958 307.846 368.724 308.133 368.438 308.367C368.177 308.628 367.852 308.758 367.461 308.758C367.096 308.758 366.771 308.641 366.484 308.406C366.198 308.172 365.951 307.885 365.742 307.547C365.56 307.234 365.404 306.883 365.273 306.492C365.169 306.128 365.104 305.789 365.078 305.477C364.948 304.826 364.831 304.109 364.727 303.328C364.648 302.547 364.57 301.74 364.492 300.906C364.44 300.099 364.388 299.292 364.336 298.484C364.284 297.703 364.232 296.974 364.18 296.297C363.893 292.729 363.685 289.201 363.555 285.711C363.451 282.221 363.398 278.706 363.398 275.164C363.398 271.674 363.451 268.211 363.555 264.773C363.685 261.336 363.867 257.859 364.102 254.344C364.18 253.328 364.297 252.195 364.453 250.945C364.609 249.669 364.909 248.471 365.352 247.352C365.82 246.232 366.484 245.294 367.344 244.539C368.229 243.784 369.427 243.406 370.938 243.406C371.302 243.406 371.615 243.497 371.875 243.68C372.135 243.836 372.266 244.122 372.266 244.539V244.93C372.031 246.492 371.797 248.055 371.562 249.617C371.328 251.154 371.081 252.729 370.82 254.344C370.195 259.552 369.661 264.76 369.219 269.969C368.802 275.151 368.594 280.372 368.594 285.633C368.594 287.69 368.633 289.721 368.711 291.727C368.789 293.732 368.932 295.75 369.141 297.781C370.938 292.208 372.513 287.273 373.867 282.977C375.247 278.68 376.458 274.917 377.5 271.688C378.542 268.458 379.414 265.711 380.117 263.445C380.846 261.154 381.458 259.24 381.953 257.703C382.448 256.167 382.839 254.943 383.125 254.031C383.411 253.094 383.646 252.378 383.828 251.883C384.01 251.362 384.141 250.984 384.219 250.75C384.297 250.516 384.375 250.307 384.453 250.125C384.844 249.24 385.378 248.445 386.055 247.742C386.732 247.039 387.604 246.688 388.672 246.688C389.401 246.688 389.987 246.87 390.43 247.234C390.898 247.599 391.263 248.055 391.523 248.602C391.784 249.148 391.953 249.747 392.031 250.398C392.135 251.049 392.188 251.648 392.188 252.195C392.135 256.232 392.018 260.229 391.836 264.188C391.654 268.12 391.497 272.026 391.367 275.906C391.237 279.786 391.172 283.641 391.172 287.469C391.198 291.297 391.38 295.112 391.719 298.914C392.76 295.841 393.724 292.951 394.609 290.242C395.495 287.508 396.328 284.904 397.109 282.43C397.917 279.956 398.685 277.573 399.414 275.281C400.169 272.99 400.938 270.724 401.719 268.484C402.526 266.245 403.359 264.005 404.219 261.766C405.078 259.526 406.029 257.221 407.07 254.852C407.305 254.383 407.565 253.914 407.852 253.445C408.138 252.951 408.464 252.508 408.828 252.117C409.193 251.727 409.609 251.401 410.078 251.141C410.547 250.88 411.068 250.75 411.641 250.75C412.448 250.75 413.086 251.01 413.555 251.531C414.023 252.052 414.375 252.677 414.609 253.406C414.87 254.135 415.039 254.904 415.117 255.711C415.195 256.492 415.234 257.156 415.234 257.703C415.234 260.099 415.156 262.755 415 265.672C414.844 268.562 414.727 271.57 414.648 274.695C414.596 277.82 414.635 280.984 414.766 284.188C414.896 287.391 415.247 290.49 415.82 293.484C416.393 296.479 417.24 299.279 418.359 301.883C419.479 304.487 420.99 306.753 422.891 308.68C424.792 310.633 427.135 312.169 429.922 313.289C432.734 314.409 436.107 314.969 440.039 314.969C440.638 314.969 441.211 314.917 441.758 314.812C442.331 314.734 442.878 314.578 443.398 314.344L443.633 315.125Z" fill="#EBAF15"/>
</svg>
